# xmcd
#
# Track frame offsets: 
#        150
#        22225
#        51407
#        71542
#        90695
#        114495
#        136135
#        161147
#        186075
#        199562
#        226430
#        248597
#        272337
#        292997
#        311185
#
# Disc length: 4375 seconds
#
# Revision: 2
# Processed by: cddbd v1.5.2PL0 Copyright (c) Steve Scherf et al.
# Submitted via: ExactAudioCopy v1.0b3
#
DISCID=d511150f
DTITLE=Michel Pépé - The Wings Of Love
DYEAR=2003
DGENRE=New Age
TTITLE0=Terra Incognita
TTITLE1=Les Senteurs Célestes
TTITLE2=Quinta Essentia
TTITLE3=Médiévale Féerie
TTITLE4=Fleur De Lys
TTITLE5=La Danse Des Elfes
TTITLE6=La Pierre Sacrée
TTITLE7=Magnificat
TTITLE8=La Présence
TTITLE9=Les Ailes De Lumière
TTITLE10=Alchimia d' Amore
TTITLE11=La Vallée Des Anges
TTITLE12=L' Oasis Eternelle
TTITLE13=Infinitude
TTITLE14=Aube Nouvelle
EXTD=YEAR: 2003
EXTT0=
EXTT1=
EXTT2=
EXTT3=
EXTT4=
EXTT5=
EXTT6=
EXTT7=
EXTT8=
EXTT9=
EXTT10=
EXTT11=
EXTT12=
EXTT13=
EXTT14=
PLAYORDER=
